<svg id="eRSr4IkasJG1" xmlns="http://www.w3.org/2000/svg" xmlns:xlink="http://www.w3.org/1999/xlink" viewBox="0 0 512 512" shape-rendering="geometricPrecision" text-rendering="geometricPrecision"><path d="M256,8C119.1,8,8,119.1,8,256s111.1,248,248,248s248-111.1,248-248-111.1-248-248-248ZM185.3,380c-68.483309,0-124-55.516691-124-124s55.516691-124,124-124c31.3,0,60.1,11,83,32.3l-33.6,32.6c-13.2-12.9-31.3-19.1-49.4-19.1-42.9,0-77.2,35.5-77.2,78.1s34.2,78.1,77.2,78.1c32.6,0,64.9-19.1,70.1-53.3h-70.1v-42.6h116.9c1.290119,6.823885,1.926334,13.755281,1.9,20.7c0,70.8-47.5,121.2-118.8,121.2ZM415.5,273.8v35.5h-35.5v-35.5h-35.5v-35.5h35.5v-35.5h35.5v35.5h35.2v35.5Z" fill="#fac901"/></svg>
