<svg id="ew3b47lZAmg1" xmlns="http://www.w3.org/2000/svg" xmlns:xlink="http://www.w3.org/1999/xlink" viewBox="0 0 448 512" shape-rendering="geometricPrecision" text-rendering="geometricPrecision"><path d="M400,32h-352C21.490332,32,0,53.490332,0,80v352c0,26.509668,21.490332,48,48,48h137.25v-152.31h-63v-71.69h63v-54.64c0-62.15,37-96.48,93.67-96.48c27.14,0,55.52,4.84,55.52,4.84v61h-31.27c-30.81,0-40.42,19.12-40.42,38.73v46.55h68.78l-11,71.69h-57.78v152.31h137.25c26.509668,0,48-21.490332,48-48v-352c0-26.509668-21.490332-48-48-48Z" fill="#fac901"/></svg>
